<svg width="16" height="16" viewBox="0 0 16 16" fill="none" xmlns="http://www.w3.org/2000/svg">
<path d="M14.6667 5.51331V2.81998C14.6667 1.75998 14.24 1.33331 13.18 1.33331H10.4867C9.42667 1.33331 9 1.75998 9 2.81998V5.51331C9 6.57331 9.42667 6.99998 10.4867 6.99998H13.18C14.24 6.99998 14.6667 6.57331 14.6667 5.51331Z" stroke="white" stroke-width="1.5" stroke-linecap="round" stroke-linejoin="round"/>
<path d="M7.00016 5.67998V2.65331C7.00016 1.71331 6.5735 1.33331 5.5135 1.33331H2.82016C1.76016 1.33331 1.3335 1.71331 1.3335 2.65331V5.67331C1.3335 6.61998 1.76016 6.99331 2.82016 6.99331H5.5135C6.5735 6.99998 7.00016 6.61998 7.00016 5.67998Z" stroke="white" stroke-width="1.5" stroke-linecap="round" stroke-linejoin="round"/>
<path d="M7.00016 13.18V10.4867C7.00016 9.42667 6.5735 9 5.5135 9H2.82016C1.76016 9 1.3335 9.42667 1.3335 10.4867V13.18C1.3335 14.24 1.76016 14.6667 2.82016 14.6667H5.5135C6.5735 14.6667 7.00016 14.24 7.00016 13.18Z" stroke="white" stroke-width="1.5" stroke-linecap="round" stroke-linejoin="round"/>
<path d="M10 10.3333H14" stroke="white" stroke-width="1.5" stroke-linecap="round"/>
<path d="M10 13H14" stroke="white" stroke-width="1.5" stroke-linecap="round"/>
</svg>
